HIERARCHY
ROOT Hips
{
	OFFSET 0.00000 0.00000 0.00000
	CHANNELS 6 Xposition Yposition Zposition Zrotation Yrotation Xrotation 
	JOINT LHipJoint
	{
		OFFSET 0 0 0
		CHANNELS 3 Zrotation Yrotation Xrotation
		JOINT LeftHip
		{
			OFFSET 1.55766 -1.60504 1.11378
			CHANNELS 3 Zrotation Yrotation Xrotation
			JOINT LeftKnee
			{
				OFFSET 2.29047 -6.29302 0.00000
				CHANNELS 3 Zrotation Yrotation Xrotation
				JOINT LeftAnkle
				{
					OFFSET 2.52265 -6.93093 0.00000
					CHANNELS 3 Zrotation Yrotation Xrotation
					JOINT LeftToe
					{
						OFFSET 0.17633 -0.48446 2.02656
						CHANNELS 3 Zrotation Yrotation Xrotation
						End Site
						{
							OFFSET 0.00000 -0.00000 1.04989
						}
					}
				}
			}
		}
	}
	JOINT RHipJoint
	{
		OFFSET 0 0 0
		CHANNELS 3 Zrotation Yrotation Xrotation
		JOINT RightHip
		{
			OFFSET -1.48599 -1.60504 1.11378
			CHANNELS 3 Zrotation Yrotation Xrotation
			JOINT RightKnee
			{
				OFFSET -2.27280 -6.24448 0.00000
				CHANNELS 3 Zrotation Yrotation Xrotation
				JOINT RightAnkle
				{
					OFFSET -2.50834 -6.89161 0.00000
					CHANNELS 3 Zrotation Yrotation Xrotation
					JOINT RightToe
					{
						OFFSET -0.26967 -0.74090 2.08741
						CHANNELS 3 Zrotation Yrotation Xrotation
						End Site
						{
							OFFSET -0.00000 -0.00000 1.10614
						}
					}
				}
			}
		}
	}
	JOINT lowerback
	{
		OFFSET 0 0 0
		CHANNELS 3 Zrotation Yrotation Xrotation
		JOINT Chest
		{
			OFFSET 0.06481 2.02437 -0.08472
			CHANNELS 3 Zrotation Yrotation Xrotation
			JOINT Chest2
			{
				OFFSET 0.00015 1.96711 0.18069
				CHANNELS 3 Zrotation Yrotation Xrotation
				JOINT lowerneck
				{
					OFFSET 0 0 0
					CHANNELS 3 Zrotation Yrotation Xrotation
					JOINT Neck
					{
						OFFSET -0.29961 1.68293 -0.13041
						CHANNELS 3 Zrotation Yrotation Xrotation
						JOINT Head
						{
							OFFSET 0.59697 1.61501 -0.14669
							CHANNELS 3 Zrotation Yrotation Xrotation
							End Site
							{
								OFFSET 0.22973 1.74906 -0.10148
							}
						}
					}
				}
				JOINT LeftCollar
				{
					OFFSET 0 0 0
					CHANNELS 3 Zrotation Yrotation Xrotation
					JOINT LeftShoulder
					{
						OFFSET 3.37968 1.02893 0.31147
CHANNELS 3 Zrotation Xrotation Yrotation
						JOINT LeftElbow
						{
OFFSET 0 -5.198070 -0.000000
CHANNELS 3 Zrotation Xrotation Yrotation
							JOINT LeftWrist
							{
OFFSET 0 -3.093700 -0.000000
CHANNELS 3 Zrotation Xrotation Yrotation
								JOINT lhand
								{
									OFFSET 0 0 0
CHANNELS 3 Zrotation Xrotation Yrotation
									JOINT LFingers
									{
OFFSET 0 -0.672630 -0.000000
CHANNELS 3 Zrotation Xrotation Yrotation
										End Site
										{
OFFSET 0 -0.542290 -0.000000
										}
									}
								}
								JOINT LThumb
								{
OFFSET 0 0.000000 0.000000
CHANNELS 3 Zrotation Xrotation Yrotation
									End Site
									{
OFFSET 0 -0.550570 0.550570
									}
								}
							}
						}
					}
				}
				JOINT RightCollar
				{
					OFFSET 0 0 0
					CHANNELS 3 Zrotation Yrotation Xrotation
					JOINT RightShoulder
					{
						OFFSET -3.38254 0.96355 -0.16120
CHANNELS 3 Zrotation Xrotation Yrotation
						JOINT RightElbow
						{
OFFSET 0 -5.452220 -0.000000
CHANNELS 3 Zrotation Xrotation Yrotation
							JOINT RightWrist
							{
OFFSET 0 -3.012840 -0.000000
CHANNELS 3 Zrotation Xrotation Yrotation
								JOINT rhand
								{
									OFFSET 0 0 0
CHANNELS 3 Zrotation Xrotation Yrotation
									JOINT RFingers
									{
OFFSET 0 -0.622300 -0.000000
CHANNELS 3 Zrotation Xrotation Yrotation
										End Site
										{
OFFSET 0 -0.501710 -0.000000
										}
									}
								}
								JOINT RThumb
								{
OFFSET 0 0.000000 0.000000
CHANNELS 3 Zrotation Xrotation Yrotation
									End Site
									{
OFFSET 0 -0.509370 0.509370
									}
								}
							}
						}
					}
				}
			}
		}
	}
}
MOTION
Frames: 9
Frame Time: 0.008333333333333333
-4.983900 15.857100 38.261800 -177.692000 -2.687300 -166.765000 0.000000 0.000000 0.000000 -18.563300 -3.767700 -24.001100 2.765900 10.306200 29.974000 0.570700 -19.003900 -17.898700 0.006600 -0.526400 -1.446500 0.000000 0.000000 0.000000 21.501000 -0.816300 -19.065300 -1.687600 -8.182500 23.269800 0.097400 24.446700 -16.586000 -0.067000 1.670200 -4.594900 3.001300 3.489500 -8.364700 -1.152100 3.600500 -8.012600 -2.652000 1.253700 -3.377600 -31.873800 -3.684900 19.538400 42.155800 -14.349900 -6.935900 24.027100 -10.586900 0.583100 0.000000 0.000000 0.000000 5.363000 13.142400 -43.510600 17.604700 -27.648000 4.364200 14.317300 -38.402200 8.818400 0.000000 0.000000 0.000000 -7.125000 0.000000 0.000000 -9.048500 20.931500 -5.283900 0.000000 0.000000 0.000000 0.836500 8.718800 15.542600 -13.119500 -21.462000 -2.496800 -8.372100 25.414300 1.376900 0.000000 0.000000 0.000000 7.125000 0.000000 -0.000000 14.431600 31.165300 5.022000
-4.998895 15.850545 38.244682 -177.708092 -2.769335 -166.758297 0.000000 0.000000 0.000000 -18.612285 -3.983447 -23.897963 2.782637 10.334616 30.067306 0.611740 -18.853514 -18.120980 0.007719 -0.568123 -1.561102 0.000000 0.000000 0.000000 21.387032 -0.291171 -18.777674 -1.696238 -8.202482 23.330939 -0.060112 23.638540 -17.091334 -0.089309 1.926248 -5.301930 2.935881 3.411942 -8.329287 -1.112076 3.496002 -8.055294 -2.583072 1.200536 -3.455256 -31.777101 -3.782382 20.710277 42.425148 -14.754584 -7.895878 24.326398 -10.938493 0.310296 0.000000 0.000000 0.000000 5.294812 13.370522 -43.423422 17.656840 -27.715536 4.388499 14.569527 -38.851553 8.982342 0.000000 0.000000 0.000000 -7.125000 0.000000 0.000000 -8.862576 20.752663 -5.208979 0.000000 0.000000 0.000000 0.706750 8.837166 15.647697 -13.138174 -21.489301 -2.503648 -8.370502 25.311472 1.397339 0.000000 0.000000 0.000000 7.125000 0.000000 0.000000 14.436130 31.185330 5.016413
-5.015060 15.842420 38.227151 -177.743000 -2.835571 -166.762080 0.000000 0.000000 0.000000 -18.673185 -4.313804 -23.744171 2.801889 10.367174 30.174149 0.658733 -18.572106 -18.323271 0.008727 -0.601654 -1.653340 0.000000 0.000000 0.000000 21.242004 0.373102 -18.440769 -1.709944 -8.233858 23.426680 -0.230952 22.687446 -17.632277 -0.115456 2.187846 -6.025266 2.896099 3.355543 -8.280762 -1.115198 3.422439 -8.076602 -2.571322 1.163352 -3.511438 -31.645634 -3.901327 21.742119 42.722204 -15.167722 -8.795918 24.627032 -11.291653 0.087140 0.000000 0.000000 0.000000 5.313818 13.533792 -43.273062 17.680583 -27.746243 4.399495 14.489340 -38.835064 9.029185 0.000000 0.000000 0.000000 -7.125000 0.000000 0.000000 -8.918481 20.708715 -5.251592 0.000000 0.000000 0.000000 0.672386 8.917765 15.572089 -13.179930 -21.550237 -2.519002 -8.248436 25.244129 1.426075 0.000000 0.000000 0.000000 7.125000 0.000000 0.000000 14.535554 31.210011 5.044107
-5.031185 15.834112 38.210592 -177.747457 -2.952789 -166.771012 0.000000 0.000000 0.000000 -18.694559 -4.663264 -23.597199 2.823003 10.402887 30.291539 0.703219 -18.332328 -18.530477 0.009901 -0.641261 -1.762186 0.000000 0.000000 0.000000 21.135105 1.108995 -18.077790 -1.726467 -8.271484 23.541777 -0.402428 21.631113 -18.161276 -0.146504 2.463610 -6.788970 2.878703 3.272723 -8.196024 -1.084835 3.320579 -8.069513 -2.539760 1.115192 -3.559927 -31.496272 -4.119611 22.555822 42.941196 -15.636063 -9.635856 24.801232 -11.638864 -0.057123 0.000000 0.000000 0.000000 5.296555 13.594867 -43.091965 17.669558 -27.731911 4.394363 14.539798 -38.714698 8.882434 0.000000 0.000000 0.000000 -7.125000 0.000000 0.000000 -8.886929 20.855823 -5.202670 0.000000 0.000000 0.000000 0.584801 8.915834 15.541980 -13.202552 -21.583232 -2.527289 -8.167590 25.152776 1.424171 0.000000 0.000000 0.000000 7.125000 0.000000 0.000000 14.598189 31.205925 5.068623
-5.047439 15.825027 38.193882 -177.757755 -3.054721 -166.785509 0.000000 0.000000 0.000000 -18.725455 -5.017749 -23.445704 2.847072 10.443247 30.424477 0.750224 -18.075519 -18.750590 0.010875 -0.672502 -1.848120 0.000000 0.000000 0.000000 21.022929 1.861327 -17.730359 -1.748897 -8.322162 23.696930 -0.562698 20.582194 -18.675383 -0.181913 2.744559 -7.568674 2.853597 3.192468 -8.111930 -1.053786 3.221678 -8.065645 -2.502771 1.068492 -3.611553 -31.340364 -4.326292 23.378585 43.154765 -16.082979 -10.478672 24.981696 -11.974271 -0.214768 0.000000 0.000000 0.000000 5.275448 13.665712 -42.907758 17.653063 -27.710618 4.386757 14.537660 -38.555097 8.803578 0.000000 0.000000 0.000000 -7.125000 0.000000 0.000000 -8.891043 20.936311 -5.188738 0.000000 0.000000 0.000000 0.493190 8.935352 15.538932 -13.228137 -21.620581 -2.536755 -8.119274 25.083200 1.457809 0.000000 0.000000 0.000000 7.125000 0.000000 0.000000 14.641116 31.237439 5.072965
-5.063972 15.815088 38.177228 -177.769172 -3.161856 -166.809087 0.000000 0.000000 0.000000 -18.757419 -5.393993 -23.283899 2.874030 10.488290 30.572986 0.798822 -17.808266 -18.980264 0.011646 -0.696812 -1.914823 0.000000 0.000000 0.000000 20.910747 2.669288 -17.384269 -1.779170 -8.390066 23.905389 -0.715846 19.488840 -19.173338 -0.223010 3.037769 -8.384031 2.826999 3.105725 -8.009373 -1.015750 3.117827 -8.048656 -2.458269 1.021144 -3.660179 -31.179922 -4.552741 24.110083 43.348319 -16.522158 -11.295008 25.129749 -12.293439 -0.352385 0.000000 0.000000 0.000000 5.249499 13.700204 -42.724510 17.620527 -27.668469 4.371631 14.538080 -38.334933 8.721411 0.000000 0.000000 0.000000 -7.125000 0.000000 0.000000 -8.893391 21.019958 -5.173159 0.000000 0.000000 0.000000 0.388281 8.931520 15.557627 -13.251610 -21.654796 -2.545423 -8.093142 25.013360 1.506999 0.000000 0.000000 0.000000 7.125000 0.000000 0.000000 14.669232 31.284785 5.066062
-5.080805 15.804063 38.160663 -177.784481 -3.269989 -166.846202 0.000000 0.000000 0.000000 -18.795835 -5.785447 -23.107728 2.903646 10.537380 30.735017 0.849025 -17.531715 -19.220849 0.012246 -0.715261 -1.965586 0.000000 0.000000 0.000000 20.795817 3.518381 -17.056101 -1.820744 -8.482209 24.188554 -0.858261 18.379298 -19.647661 -0.269418 3.337937 -9.221168 2.795828 3.013144 -7.887739 -0.971843 3.010133 -8.016977 -2.405611 0.973860 -3.704420 -31.015872 -4.785493 24.767524 43.527845 -16.941348 -12.084607 25.257237 -12.592890 -0.479072 0.000000 0.000000 0.000000 5.220556 13.703539 -42.561810 17.576373 -27.611354 4.351129 14.558243 -38.116301 8.675183 0.000000 0.000000 0.000000 -7.125000 0.000000 0.000000 -8.880497 21.066149 -5.156095 0.000000 0.000000 0.000000 0.270975 8.902701 15.594924 -13.271588 -21.683952 -2.552738 -8.085245 24.946161 1.553122 0.000000 0.000000 0.000000 7.125000 0.000000 0.000000 14.682780 31.329631 5.054618
-5.097905 15.791835 38.144439 -177.807962 -3.375618 -166.894043 0.000000 0.000000 0.000000 -18.847316 -6.182863 -22.923605 2.935806 10.590375 30.910555 0.900219 -17.251328 -19.469895 0.012920 -0.732881 -2.014099 0.000000 0.000000 0.000000 20.674469 4.387343 -16.772991 -1.877592 -8.606257 24.571209 -0.986351 17.288395 -20.089384 -0.320171 3.636973 -10.057640 2.754845 2.915754 -7.743458 -0.925597 2.899586 -7.976217 -2.345392 0.926837 -3.752083 -30.853790 -5.004256 25.364335 43.701850 -17.323532 -12.836065 25.382495 -12.867355 -0.601791 0.000000 0.000000 0.000000 5.195395 13.690462 -42.434818 17.527693 -27.548152 4.328567 14.605648 -37.941994 8.669715 0.000000 0.000000 0.000000 -7.125000 0.000000 0.000000 -8.846525 21.069441 -5.135219 0.000000 0.000000 0.000000 0.145544 8.854740 15.641119 -13.286376 -21.705401 -2.558204 -8.072378 24.883225 1.581429 0.000000 0.000000 0.000000 7.125000 0.000000 0.000000 14.697261 31.356893 5.049972
-5.115286 15.778342 38.128434 -177.837414 -3.468947 -166.953753 0.000000 0.000000 0.000000 -18.910771 -6.576627 -22.734209 2.970699 10.647434 31.099953 0.952308 -16.968959 -19.728072 0.013475 -0.749177 -2.058946 0.000000 0.000000 0.000000 20.548421 5.252390 -16.566304 -1.955301 -8.772055 25.085087 -1.097167 16.261136 -20.490303 -0.374187 3.927522 -10.873114 2.705221 2.816391 -7.575565 -0.876669 2.789901 -7.924011 -2.277951 0.882099 -3.801059 -30.689778 -5.206733 25.896266 43.864351 -17.665135 -13.532412 25.498239 -13.114132 -0.718797 0.000000 0.000000 0.000000 5.173157 13.658884 -42.341689 17.476496 -27.481619 4.304940 14.678641 -37.842240 8.713489 0.000000 0.000000 0.000000 -7.125000 0.000000 0.000000 -8.792790 21.021494 -5.112897 0.000000 0.000000 0.000000 0.014083 8.777686 15.684537 -13.293623 -21.715906 -2.560926 -8.040203 24.835479 1.588040 0.000000 0.000000 0.000000 7.125000 0.000000 0.000000 14.723314 31.362508 5.057458
